<?xml version="1.0" encoding="utf-8"?>
<!-- Svg Vector Icons : http://www.onlinewebfonts.com/icon -->
<!DOCTYPE svg PUBLIC "-//W3C//DTD SVG 1.1//EN" "http://www.w3.org/Graphics/SVG/1.1/DTD/svg11.dtd">
<svg version="1.1" xmlns="http://www.w3.org/2000/svg" xmlns:xlink="http://www.w3.org/1999/xlink" x="0px" y="0px" viewBox="0 0 1000 1000" enable-background="new 0 0 1000 1000" xml:space="preserve">
<metadata> Svg Vector Icons : http://www.onlinewebfonts.com/icon </metadata>
<g><g transform="translate(0.000000,511.000000) scale(0.100000,-0.100000)"><path d="M3912.2,4981.2c-21.6-7.8-121.5-100-219.5-201.9c-172.5-176.4-182.3-188.2-182.3-270.5c0-80.4,7.8-92.1,192.1-276.4c186.2-186.2,196-192.1,280.3-192.1c49,0,98,9.8,111.7,23.5c17.6,17.6,47-2,129.4-78.4c98-92.1,115.6-101.9,198-101.9c125.4,0,205.8,76.4,205.8,196c0,70.6-13.7,94.1-100,186.2c-98,103.9-100,109.8-76.4,166.6c45.1,107.8,13.7,172.5-172.5,356.7C4063.1,5002.7,4018,5026.2,3912.2,4981.2z"/><path d="M4960.8,3662.1c-90.2-31.4-149-135.2-129.4-231.3c9.8-54.9,56.8-113.7,215.6-268.5c192.1-190.1,205.8-199.9,284.2-199.9c98,0,166.6,41.2,197.9,117.6c47.1,113.7,13.7,174.4-203.8,388.1c-111.7,109.8-211.7,199.9-223.4,199.9c-11.8,0-31.4,3.9-47,7.8C5041.2,3681.7,4998,3675.8,4960.8,3662.1z"/><path d="M3373.2,2913.4c-574.3-80.4-1158.4-292-1595.4-576.2l-152.9-101.9l-184.2,178.4c-178.4,172.5-184.2,176.4-276.4,176.4h-94.1l-484.1-486.1L100,1619.8v-96v-96l454.7-458.6c250.9-252.8,480.2-472.4,509.6-488c29.4-15.7,82.3-27.4,115.6-27.4c56.8,0,115.6,51,527.2,456.7c252.8,248.9,476.3,478.2,495.9,507.6c39.2,58.8,43.1,137.2,11.8,198c-11.8,23.5-82.3,105.8-158.8,182.3l-135.2,139.2l166.6,101.9c1042.7,639,2365.7,678.2,3467.2,103.9c94.1-49,170.5-94.1,170.5-101.9s-23.5-33.3-50.9-60.8c-68.6-64.7-105.8-139.2-105.8-217.6c0-56.8,49-113.7,495.9-558.6c458.7-458.6,499.8-495.9,562.5-495.9c74.5,0,129.4,29.4,227.4,123.5l62.7,56.9l49-86.3c96-160.7,245-495.9,305.8-682.1c223.4-680.1,223.4-1434.7,1.9-2120.7c-72.5-219.5-256.7-607.6-382.2-801.6l-90.2-139.2l-152.9,149c-149,143.1-156.8,149-248.9,149h-96.1l-484.1-486.1l-486.1-484.1v-96v-96l452.8-456.7c248.9-248.9,482.2-470.4,515.5-488c129.4-70.5,154.8-52.9,664.4,456.7c256.8,254.8,474.3,478.2,484.1,493.9c25.5,39.2,23.5,131.3-2,182.3c-11.8,23.5-96,117.6-186.2,209.7L7099.1-3241l113.7,176.4c642.9,985.9,799.7,2234.4,423.3,3371.2c-45.1,141.1-119.6,331.2-162.7,427.3l-80.4,170.5h52.9c96.1,2,180.3,100,180.3,215.6c0,47-23.5,86.2-101.9,168.6l-101.9,107.8l119.6,121.5c141.1,143.1,162.7,182.3,162.7,282.2c0,70.6-21.6,96-486.1,558.6l-484.1,486.1h-96c-92.1,0-100-5.9-245-145l-149-147l-101.9,98c-92.1,86.2-109.7,96-192.1,96c-74.5,0-101.9-9.8-149-56.8c-37.3-39.2-56.8-78.4-56.8-117.6v-58.8l-166.6,78.4c-331.3,154.8-784,280.3-1205.4,331.2C4147.4,2950.6,3600.6,2944.7,3373.2,2913.4z M6930.6,2060.8l274.4-274.4l-284.2-284.2L6636.6,1218l-282.2,282.2l-282.2,282.2l272.4,276.4c150.9,150.9,282.2,276.4,292.1,276.4C6648.4,2335.2,6779.7,2211.7,6930.6,2060.8z M1462.2,1804l272.4-274.4l-282.2-282.2l-284.2-284.2L884,1247.4l-284.2,284.2L874.2,1806c150.9,150.9,282.2,274.4,294,274.4C1178,2080.4,1311.3,1956.9,1462.2,1804z M6695.4-3429.2l272.5-274.4l-282.2-282.2L6401.4-4270l-284.2,284.2L5833-3701.6l274.4,274.4c150.9,150.9,282.2,274.4,294,274.4C6411.2-3152.8,6544.5-3278.3,6695.4-3429.2z"/><path d="M7955.7,657.4C7898.8,628,7842,537.9,7842,483c0-74.5,70.5-168.6,256.7-341c164.6-152.9,205.8-182.3,262.6-184.2c90.2-2,158.8,37.2,196,117.6c52.9,111.7,25.5,170.5-174.5,374.4C8145.8,692.7,8079.1,726,7955.7,657.4z"/><path d="M8927.9-279.4c-82.3-37.2-125.4-102-125.4-194.1c0-62.7,15.7-92.1,100-180.3c98-103.9,98-103.9,68.6-164.6c-64.7-123.5-35.3-188.2,178.4-397.9c252.8-248.9,299.9-247,570.4,31.3c170.5,172.5,180.3,188.2,180.3,266.6c0,78.4-9.8,94.1-180.3,268.5c-190.1,192.1-252.8,227.3-358.7,197.9c-50.9-13.7-66.6-5.9-147,70.5c-76.5,76.5-168.6,131.3-211.7,129.4C8994.5-254,8961.2-265.7,8927.9-279.4z"/></g></g>
</svg>